<svg width="32" height="33" viewBox="0 0 32 33" fill="none" xmlns="http://www.w3.org/2000/svg">
<path id="Vector" fill-rule="evenodd" clip-rule="evenodd" d="M15.9953 0.959229C7.17535 0.959229 1.8196e-05 8.13589 1.8196e-05 16.9592C-0.00508156 20.3293 1.06191 23.6136 3.04668 26.3372L1.05335 32.2819L7.20268 30.3165C9.81191 32.0461 12.8743 32.9655 16.0047 32.9592C24.8247 32.9592 32 25.7819 32 16.9592C32 8.13655 24.8253 0.959229 16.0047 0.959229H15.9953ZM11.5287 9.08589C11.218 8.34322 10.9833 8.31522 10.5133 8.29589C10.3349 8.28458 10.1562 8.27858 9.97735 8.27789C9.36535 8.27789 8.72601 8.45655 8.34068 8.85122C7.87068 9.33122 6.70468 10.4499 6.70468 12.7452C6.70468 15.0405 8.37801 17.2605 8.60401 17.5712C8.83935 17.8812 11.8673 22.6592 16.5687 24.6065C20.2453 26.1305 21.3367 25.9892 22.1733 25.8105C23.396 25.5472 24.9287 24.6439 25.314 23.5532C25.7 22.4619 25.7 21.5305 25.5873 21.3332C25.474 21.1359 25.1633 21.0232 24.694 20.7879C24.2233 20.5525 21.938 19.4239 21.5053 19.2732C21.0827 19.1132 20.6787 19.1699 20.3587 19.6212C19.9073 20.2519 19.4653 20.8912 19.108 21.2765C18.826 21.5779 18.3647 21.6159 17.9793 21.4552C17.462 21.2392 16.014 20.7312 14.2273 19.1419C12.8447 17.9092 11.9047 16.3765 11.632 15.9152C11.3587 15.4452 11.604 15.1725 11.82 14.9185C12.0553 14.6265 12.2807 14.4199 12.516 14.1472C12.7507 13.8739 12.8827 13.7332 13.0333 13.4139C13.1933 13.1032 13.08 12.7832 12.9667 12.5472C12.8547 12.3125 11.914 10.0172 11.5287 9.08655V9.08589Z" fill="#67C15E"/>
</svg>
