<svg width="6" height="11" viewBox="0 0 6 11" fill="none" xmlns="http://www.w3.org/2000/svg">
<path d="M1.46825 10.3584C1.30712 10.5152 1.08857 10.6033 0.860687 10.6033C0.632806 10.6033 0.414258 10.5152 0.253122 10.3584C0.0919858 10.2016 0.00146038 9.98895 0.00146038 9.76722C0.00146038 9.54548 0.0919858 9.33283 0.253122 9.17604L3.93274 5.60398L0.253122 2.03193C0.172916 1.95452 0.109255 1.86243 0.0658112 1.76096C0.0223672 1.6595 0 1.55067 0 1.44075C0 1.33083 0.0223672 1.222 0.0658112 1.12053C0.109255 1.01906 0.172916 0.926973 0.253122 0.849568C0.332673 0.771525 0.427317 0.709579 0.531595 0.667307C0.635873 0.625035 0.747721 0.603271 0.860687 0.603271C0.973653 0.603271 1.0855 0.625035 1.18978 0.667307C1.29406 0.709579 1.3887 0.771525 1.46825 0.849568L5.74688 5.0128C5.82708 5.09021 5.89074 5.1823 5.93419 5.28377C5.97763 5.38523 6 5.49406 6 5.60398C6 5.7139 5.97763 5.82273 5.93419 5.9242C5.89074 6.02566 5.82708 6.11776 5.74688 6.19516L1.46825 10.3584Z" fill="white"/>
</svg>
