<svg width="77" height="78" viewBox="0 0 77 78" fill="none" xmlns="http://www.w3.org/2000/svg">
<g id="Icon">
<path id="Circle 2" opacity="0.3" d="M54 0.603271C66.7025 0.603271 77 10.9007 77 23.6033V54.6033C77 67.3058 66.7025 77.6033 54 77.6033H23C10.2975 77.6033 0 67.3058 0 54.6033V23.6033C0 10.9007 10.2975 0.603271 23 0.603271H54Z" fill="#9898FF"/>
<g id="icon">
<g id="Group">
<path id="Combined Shape" opacity="0.587821" d="M47 33.2705C49.2091 33.2705 51 35.0613 51 37.2705C50.9998 39.4795 49.209 41.2705 47 41.2705C44.7911 41.2703 43.0002 39.4793 43 37.2705C43 35.0614 44.791 33.2706 47 33.2705ZM35 26.6035C37.9454 26.6035 40.3338 28.9911 40.334 31.9365C40.334 34.882 37.9455 37.2705 35 37.2705C32.0546 37.2703 29.667 34.8819 29.667 31.9365C29.6672 28.9912 32.0547 26.6036 35 26.6035Z" fill="#8280FF"/>
<path id="Combined Shape_2" d="M34.9774 39.9368C41.3611 39.9368 46.6061 42.9943 46.997 49.5364C47.0125 49.797 46.9966 50.6038 45.995 50.6038H23.9696C23.6351 50.6034 22.9727 49.882 23.0009 49.5354C23.5178 43.1721 28.6824 39.9369 34.9774 39.9368ZM46.4686 42.6057C51.0103 42.6556 54.7187 44.9504 54.9979 49.803C55.0092 49.9985 54.9977 50.6038 54.2743 50.6038H49.1337C49.1337 47.6031 48.1416 44.8338 46.4686 42.6057Z" fill="#8280FF"/>
</g>
</g>
</g>
</svg>
