<svg width="77" height="78" viewBox="0 0 77 78" fill="none" xmlns="http://www.w3.org/2000/svg">
<g id="Icon">
<path id="Circle 2" opacity="0.3" d="M54 0.603271C66.7025 0.603271 77 10.9007 77 23.6033V54.6033C77 67.3058 66.7025 77.6033 54 77.6033H23C10.2975 77.6033 0 67.3058 0 54.6033V23.6033C0 10.9007 10.2975 0.603271 23 0.603271H54Z" fill="#FF9066"/>
<g id="icon">
<path id="Vector" d="M53.9317 39.1039C54.7302 38.2449 55.1759 37.1277 55.1829 35.9669C55.1829 34.7189 54.6759 33.522 53.7734 32.6396C52.8709 31.7571 51.6468 31.2613 50.3704 31.2613H42.0609C42.3171 30.5526 42.396 29.7942 42.2909 29.0496C42.1858 28.305 41.8999 27.5958 41.4569 26.9814C41.0139 26.3671 40.4269 25.8654 39.7449 25.5185C39.0629 25.1715 38.3059 24.9894 37.5371 24.9873H27.9121C26.6358 24.9873 25.4117 25.483 24.5092 26.3655C23.6066 27.2479 23.0996 28.4448 23.0996 29.6928C23.1067 30.8536 23.5523 31.9709 24.3509 32.8299C23.5617 33.6926 23.1254 34.8094 23.1254 35.9669C23.1254 37.1243 23.5617 38.2412 24.3509 39.1039C23.5617 39.9666 23.1254 41.0835 23.1254 42.241C23.1254 43.3984 23.5617 44.5153 24.3509 45.378C23.5523 46.237 23.1067 47.3542 23.0996 48.515C23.0996 49.763 23.6066 50.9599 24.5092 51.8424C25.4117 52.7248 26.6358 53.2206 27.9121 53.2206H50.3704C51.2973 53.2157 52.2029 52.9493 52.9786 52.4533C53.7543 51.9573 54.3671 51.2529 54.7432 50.4246C55.1193 49.5963 55.2428 48.6795 55.0988 47.7843C54.9549 46.889 54.5496 46.0535 53.9317 45.378C54.7209 44.5153 55.1572 43.3984 55.1572 42.241C55.1572 41.0835 54.7209 39.9666 53.9317 39.1039ZM37.5371 50.0836H27.9121C27.4867 50.0836 27.0786 49.9183 26.7778 49.6241C26.477 49.33 26.3079 48.931 26.3079 48.515C26.3079 48.099 26.477 47.7001 26.7778 47.4059C27.0786 47.1118 27.4867 46.9465 27.9121 46.9465H37.5371C37.9626 46.9465 38.3706 47.1118 38.6714 47.4059C38.9723 47.7001 39.1413 48.099 39.1413 48.515C39.1413 48.931 38.9723 49.33 38.6714 49.6241C38.3706 49.9183 37.9626 50.0836 37.5371 50.0836ZM37.5371 43.8095H27.9121C27.4867 43.8095 27.0786 43.6442 26.7778 43.3501C26.477 43.0559 26.3079 42.657 26.3079 42.241C26.3079 41.825 26.477 41.426 26.7778 41.1319C27.0786 40.8377 27.4867 40.6724 27.9121 40.6724H37.5371C37.9626 40.6724 38.3706 40.8377 38.6714 41.1319C38.9723 41.426 39.1413 41.825 39.1413 42.241C39.1413 42.657 38.9723 43.0559 38.6714 43.3501C38.3706 43.6442 37.9626 43.8095 37.5371 43.8095ZM37.5371 37.5354H27.9121C27.4867 37.5354 27.0786 37.3702 26.7778 37.076C26.477 36.7818 26.3079 36.3829 26.3079 35.9669C26.3079 35.5509 26.477 35.1519 26.7778 34.8578C27.0786 34.5636 27.4867 34.3984 27.9121 34.3984H37.5371C37.9626 34.3984 38.3706 34.5636 38.6714 34.8578C38.9723 35.1519 39.1413 35.5509 39.1413 35.9669C39.1413 36.3829 38.9723 36.7818 38.6714 37.076C38.3706 37.3702 37.9626 37.5354 37.5371 37.5354ZM37.5371 31.2613H27.9121C27.4867 31.2613 27.0786 31.0961 26.7778 30.8019C26.477 30.5078 26.3079 30.1088 26.3079 29.6928C26.3079 29.2768 26.477 28.8779 26.7778 28.5837C27.0786 28.2896 27.4867 28.1243 27.9121 28.1243H37.5371C37.9626 28.1243 38.3706 28.2896 38.6714 28.5837C38.9723 28.8779 39.1413 29.2768 39.1413 29.6928C39.1413 30.1088 38.9723 30.5078 38.6714 30.8019C38.3706 31.0961 37.9626 31.2613 37.5371 31.2613ZM51.4773 49.6287C51.3351 49.7753 51.1633 49.8915 50.9727 49.9698C50.7822 50.0481 50.5771 50.0868 50.3704 50.0836H42.0609C42.4455 49.0717 42.4455 47.9584 42.0609 46.9465H50.3704C50.7959 46.9465 51.2039 47.1118 51.5048 47.4059C51.8056 47.7001 51.9746 48.099 51.9746 48.515C51.9716 48.7237 51.9261 48.9296 51.8407 49.1209C51.7554 49.3121 51.6318 49.4847 51.4773 49.6287ZM51.4773 43.3546C51.3351 43.5013 51.1633 43.6174 50.9727 43.6957C50.7822 43.774 50.5771 43.8128 50.3704 43.8095H42.0609C42.4455 42.7976 42.4455 41.6843 42.0609 40.6724H50.3704C50.7959 40.6724 51.2039 40.8377 51.5048 41.1319C51.8056 41.426 51.9746 41.825 51.9746 42.241C51.9716 42.4496 51.9261 42.6556 51.8407 42.8468C51.7554 43.038 51.6318 43.2107 51.4773 43.3546ZM51.4773 37.0805C51.3351 37.2272 51.1633 37.3434 50.9727 37.4217C50.7822 37.5 50.5771 37.5387 50.3704 37.5354H42.0609C42.4455 36.5236 42.4455 35.4102 42.0609 34.3984H50.3704C50.7959 34.3984 51.2039 34.5636 51.5048 34.8578C51.8056 35.1519 51.9746 35.5509 51.9746 35.9669C51.9716 36.1755 51.9261 36.3815 51.8407 36.5727C51.7554 36.7639 51.6318 36.9366 51.4773 37.0805Z" fill="#FF9066"/>
</g>
</g>
</svg>
