<svg width="77" height="78" viewBox="0 0 77 78" fill="none" xmlns="http://www.w3.org/2000/svg">
<g id="Icon">
<path id="Circle 2" opacity="0.3" d="M54 0.603271C66.7025 0.603271 77 10.9007 77 23.6033V54.6033C77 67.3058 66.7025 77.6033 54 77.6033H23C10.2975 77.6033 0 67.3058 0 54.6033V23.6033C0 10.9007 10.2975 0.603271 23 0.603271H54Z" fill="#FFD471"/>
<g id="icon">
<path id="Combined Shape" fill-rule="evenodd" clip-rule="evenodd" d="M23 33.9197L35.9005 41.3678C36.0394 41.448 36.1851 41.506 36.3333 41.5427V55.988L23.9201 48.6418C23.3498 48.3043 23 47.6908 23 47.0282V33.9197ZM53 33.7217V47.0282C53 47.6908 52.6502 48.3043 52.0799 48.6418L39.6667 55.988V41.4162C39.6969 41.4011 39.7269 41.385 39.7566 41.3678L53 33.7217Z" fill="#FEC53D"/>
<path id="Path" opacity="0.499209" fill-rule="evenodd" clip-rule="evenodd" d="M23.4053 30.3047C23.5628 30.1057 23.7617 29.9375 23.9936 29.814L37.1186 22.8234C37.6696 22.5299 38.3305 22.5299 38.8815 22.8234L52.0065 29.814C52.1852 29.9092 52.3444 30.031 52.4801 30.1729L38.0899 38.4811C37.9953 38.5357 37.9081 38.5982 37.8286 38.6673C37.7491 38.5982 37.6618 38.5357 37.5672 38.4811L23.4053 30.3047Z" fill="#FEC53D"/>
</g>
</g>
</svg>
